<?xml version="1.0" encoding="UTF-8" standalone="no"?>
<svg width="41px" height="41px" viewBox="0 0 41 41" version="1.1" xmlns="http://www.w3.org/2000/svg" xmlns:xlink="http://www.w3.org/1999/xlink">
    <!-- Generator: Sketch 3.7.1 (28215) - http://www.bohemiancoding.com/sketch -->
    <title>Email</title>
    <desc>Created with Sketch.</desc>
    <defs></defs>
    <g id="Welcome" stroke="none" stroke-width="1" fill="none" fill-rule="evenodd">
        <g id="Desktop-HD" transform="translate(-372.000000, -472.000000)">
            <g id="Header">
                <g id="Leading-Text" transform="translate(250.000000, 237.000000)">
                    <g id="Shariing" transform="translate(0.000000, 236.000000)">
                        <g id="Email" transform="translate(123.000000, 0.000000)">
                            <circle id="Oval-16" stroke="#FFFFFF" stroke-width="1.5503876" cx="19.5" cy="19.5" r="19.5"></circle>
                            <g id="envelope" transform="translate(13.000000, 14.000000)" fill="#FFFFFF">
                                <path d="M14,3.546875 L14,9.75 C14,10.09375 13.8776042,10.3880208 13.6328125,10.6328125 C13.3880208,10.8776042 13.09375,11 12.75,11 L1.25,11 C0.90625,11 0.611979167,10.8776042 0.3671875,10.6328125 C0.122395833,10.3880208 0,10.09375 0,9.75 L0,3.546875 C0.229166667,3.80208333 0.4921875,4.02864583 0.7890625,4.2265625 C2.67447917,5.5078125 3.96875,6.40625 4.671875,6.921875 C4.96875,7.140625 5.20963542,7.31119792 5.39453125,7.43359375 C5.57942708,7.55598958 5.82552083,7.68098958 6.1328125,7.80859375 C6.44010417,7.93619792 6.7265625,8 6.9921875,8 L7.0078125,8 C7.2734375,8 7.55989583,7.93619792 7.8671875,7.80859375 C8.17447917,7.68098958 8.42057292,7.55598958 8.60546875,7.43359375 C8.79036458,7.31119792 9.03125,7.140625 9.328125,6.921875 C10.2135417,6.28125 11.5104167,5.3828125 13.21875,4.2265625 C13.515625,4.0234375 13.7760417,3.796875 14,3.546875 L14,3.546875 Z M14,1.25 C14,1.66145833 13.8723958,2.0546875 13.6171875,2.4296875 C13.3619792,2.8046875 13.0442708,3.125 12.6640625,3.390625 C10.7057292,4.75 9.48697917,5.59635417 9.0078125,5.9296875 C8.95572917,5.96614583 8.84505208,6.04557292 8.67578125,6.16796875 C8.50651042,6.29036458 8.36588542,6.38932292 8.25390625,6.46484375 C8.14192708,6.54036458 8.00651042,6.625 7.84765625,6.71875 C7.68880208,6.8125 7.5390625,6.8828125 7.3984375,6.9296875 C7.2578125,6.9765625 7.12760417,7 7.0078125,7 L6.9921875,7 C6.87239583,7 6.7421875,6.9765625 6.6015625,6.9296875 C6.4609375,6.8828125 6.31119792,6.8125 6.15234375,6.71875 C5.99348958,6.625 5.85807292,6.54036458 5.74609375,6.46484375 C5.63411458,6.38932292 5.49348958,6.29036458 5.32421875,6.16796875 C5.15494792,6.04557292 5.04427083,5.96614583 4.9921875,5.9296875 C4.51822917,5.59635417 3.8359375,5.12109375 2.9453125,4.50390625 C2.0546875,3.88671875 1.52083333,3.515625 1.34375,3.390625 C1.02083333,3.171875 0.716145833,2.87109375 0.4296875,2.48828125 C0.143229167,2.10546875 0,1.75 0,1.421875 C0,1.015625 0.108072917,0.677083333 0.32421875,0.40625 C0.540364583,0.135416667 0.848958333,0 1.25,0 L12.75,0 C13.0885417,0 13.3815104,0.122395833 13.6289062,0.3671875 C13.8763021,0.611979167 14,0.90625 14,1.25 L14,1.25 Z" id="Shape"></path>
                            </g>
                        </g>
                    </g>
                </g>
            </g>
        </g>
    </g>
</svg>