<?xml version="1.0" encoding="UTF-8" standalone="no"?>
<svg width="41px" height="41px" viewBox="0 0 41 41" version="1.1" xmlns="http://www.w3.org/2000/svg" xmlns:xlink="http://www.w3.org/1999/xlink">
    <!-- Generator: Sketch 3.7.1 (28215) - http://www.bohemiancoding.com/sketch -->
    <title>Facebook</title>
    <desc>Created with Sketch.</desc>
    <defs></defs>
    <g id="Welcome" stroke="none" stroke-width="1" fill="none" fill-rule="evenodd">
        <g id="Desktop-HD" transform="translate(-310.000000, -472.000000)">
            <g id="Header">
                <g id="Leading-Text" transform="translate(250.000000, 237.000000)">
                    <g id="Shariing" transform="translate(0.000000, 236.000000)">
                        <g id="Facebook" transform="translate(61.000000, 0.000000)">
                            <g id="facebook" transform="translate(14.820000, 10.140000)" fill="#FFFFFF">
                                <path d="M9.36,0.13 L9.36,2.99 L7.65916667,2.99 C7.03805556,2.99 6.61916667,3.12 6.4025,3.38 C6.18583333,3.64 6.0775,4.03 6.0775,4.55 L6.0775,6.5975 L9.25166667,6.5975 L8.82916667,9.80416667 L6.0775,9.80416667 L6.0775,18.0266667 L2.7625,18.0266667 L2.7625,9.80416667 L0,9.80416667 L0,6.5975 L2.7625,6.5975 L2.7625,4.23583333 C2.7625,2.8925 3.13805556,1.85069444 3.88916667,1.11041667 C4.64027778,0.370138889 5.64055556,0 6.89,0 C7.95166667,0 8.775,0.0433333333 9.36,0.13 L9.36,0.13 Z" id="Shape"></path>
                            </g>
                            <g id="Group-9-Copy" stroke-width="1.5503876" stroke="#FFFFFF">
                                <circle id="Oval-16" cx="19.5" cy="19.5" r="19.5"></circle>
                            </g>
                        </g>
                    </g>
                </g>
            </g>
        </g>
    </g>
</svg>