<?xml version="1.0" encoding="UTF-8" standalone="no"?>
<svg width="41px" height="41px" viewBox="0 0 41 41" version="1.1" xmlns="http://www.w3.org/2000/svg" xmlns:xlink="http://www.w3.org/1999/xlink">
    <!-- Generator: Sketch 3.7.1 (28215) - http://www.bohemiancoding.com/sketch -->
    <title>Twitter</title>
    <desc>Created with Sketch.</desc>
    <defs></defs>
    <g id="Welcome" stroke="none" stroke-width="1" fill="none" fill-rule="evenodd">
        <g id="Desktop-HD" transform="translate(-249.000000, -472.000000)">
            <g id="Header">
                <g id="Leading-Text" transform="translate(250.000000, 237.000000)">
                    <g id="Shariing" transform="translate(0.000000, 236.000000)">
                        <g id="Twitter">
                            <g id="twitter" transform="translate(11.700000, 13.260000)" fill="#FFFFFF">
                                <path d="M15.6,1.50456853 C15.157868,2.15126904 14.6233503,2.70228426 13.9964467,3.15761421 C14.0030457,3.25 14.0063452,3.38857868 14.0063452,3.57335025 C14.0063452,4.43121827 13.8809645,5.28743655 13.630203,6.14200508 C13.3794416,6.9965736 12.9983503,7.81649746 12.4869289,8.60177665 C11.9755076,9.38705584 11.3667513,10.081599 10.6606599,10.6854061 C9.95456853,11.2892132 9.10329949,11.7709391 8.10685279,12.1305838 C7.11040609,12.4902284 6.04467005,12.6700508 4.90964467,12.6700508 C3.1213198,12.6700508 1.48477157,12.1916244 0,11.2347716 C0.230964467,11.2611675 0.488324873,11.2743655 0.772081218,11.2743655 C2.25685279,11.2743655 3.57994924,10.8190355 4.74137056,9.90837563 C4.04847716,9.89517766 3.42817259,9.68236041 2.88045685,9.26992386 C2.33274112,8.85748731 1.95659898,8.33121827 1.75203046,7.69111675 C1.96979695,7.72411168 2.17106599,7.74060914 2.35583756,7.74060914 C2.63959391,7.74060914 2.92005076,7.70431472 3.19720812,7.63172589 C2.45812183,7.47994924 1.84606599,7.11205584 1.36104061,6.52804569 C0.876015228,5.94403553 0.633502538,5.26598985 0.633502538,4.49390863 L0.633502538,4.45431472 C1.0822335,4.70507614 1.56395939,4.84035533 2.0786802,4.86015228 C1.64314721,4.56979695 1.29670051,4.19035533 1.0393401,3.72182741 C0.781979695,3.25329949 0.653299492,2.74517766 0.653299492,2.19746193 C0.653299492,1.61675127 0.798477157,1.07893401 1.08883249,0.584010152 C1.88730964,1.56725888 2.85901015,2.35418782 4.00393401,2.94479695 C5.14885787,3.53540609 6.37461929,3.86370558 7.68121827,3.92969543 C7.6284264,3.67893401 7.60203046,3.43477157 7.60203046,3.19720812 C7.60203046,2.31294416 7.91383249,1.55901015 8.53743655,0.935406091 C9.16104061,0.31180203 9.91497462,0 10.7992386,0 C11.7230964,0 12.5017766,0.336548223 13.1352792,1.00964467 C13.8545685,0.87106599 14.5309645,0.613705584 15.164467,0.237563452 C14.9203046,0.996446701 14.4517766,1.58375635 13.7588832,1.99949239 C14.3725888,1.93350254 14.9862944,1.76852792 15.6,1.50456853 L15.6,1.50456853 Z" id="Shape"></path>
                            </g>
                            <circle id="Oval-16" stroke="#FFFFFF" stroke-width="1.5503876" cx="19.5" cy="19.5" r="19.5"></circle>
                        </g>
                    </g>
                </g>
            </g>
        </g>
    </g>
</svg>